{
	"asset": { "version": "2.0", "generator": "VECTARY" },
	"nodes": [
		{
			"translation": [
				9.92296314239502, 6.762499809265138, -5.446189403533934
			],
			"scale": [
				0.9999999901199592, 1.0000000082778873, 1.0000000268401497
			],
			"rotation": [
				0.7354271630343621, -0.6666097034837243, -0.0760697197490704,
				0.09482503242203505
			],
			"name": "Sketchfab_model 1"
		},
		{
			"translation": [0, -0.973, 3.524291969370097e-15],
			"scale": [0.03304, 0.033041346000000006, 0.03304000000000001],
			"rotation": [-1, 0, 0, 2.220446049250313e-16],
			"name": "Sketchfab_model 2",
			"children": [2]
		},
		{
			"translation": [0, 0, 0],
			"scale": [1, 1, 1],
			"rotation": [0, 0, 0, 1],
			"name": "apollo-50k-sm.OBJ.cleaner.materialmerger.gles",
			"children": [3]
		},
		{
			"translation": [0, 0, 0],
			"scale": [1, 1, 1],
			"rotation": [0, 0, 0, 1],
			"name": "Object_0",
			"mesh": 0
		}
	],
	"materials": [
		{
			"pbrMetallicRoughness": {
				"baseColorFactor": [1, 1, 1, 1],
				"baseColorTexture": {
					"index": 0,
					"extensions": {
						"KHR_texture_transform": {
							"offset": [0, 0],
							"scale": [1, 1],
							"rotation": 0
						}
					},
					"texCoord": 0
				},
				"metallicRoughnessTexture": {
					"index": 2,
					"extensions": {
						"KHR_texture_transform": {
							"offset": [0, 0],
							"scale": [1, 1],
							"rotation": 0
						}
					},
					"texCoord": 0
				},
				"metallicFactor": 1,
				"roughnessFactor": 1
			},
			"name": "Concrete",
			"normalTexture": {
				"index": 1,
				"scale": 1,
				"extensions": {
					"KHR_texture_transform": {
						"offset": [0, 0],
						"scale": [1, 1],
						"rotation": 0
					}
				},
				"texCoord": 0
			},
			"emissiveFactor": [0, 0, 0],
			"extensions": {},
			"alphaMode": "OPAQUE",
			"doubleSided": false
		}
	],
	"textures": [
		{ "sampler": 0, "source": 0 },
		{ "sampler": 0, "source": 1 },
		{ "sampler": 0, "source": 2 }
	],
	"images": [
		{ "uri": "textures/Concrete_001_Color.jpg", "mimeType": "image/jpeg" },
		{
			"uri": "textures/Concrete_001_NormalMap.jpg",
			"mimeType": "image/jpeg"
		},
		{
			"uri": "textures/Concrete_001_Metalic&Concrete_001_Roughness.jpg",
			"mimeType": "image/jpeg"
		}
	],
	"samplers": [{ "wrapS": 10497, "wrapT": 10497 }],
	"meshes": [
		{
			"primitives": [
				{
					"mode": 4,
					"attributes": {
						"POSITION": 1,
						"NORMAL": 2,
						"TEXCOORD_0": 3
					},
					"material": 0,
					"indices": 0
				}
			]
		}
	],
	"accessors": [
		{
			"bufferView": 0,
			"byteOffset": 0,
			"componentType": 5125,
			"count": 150054,
			"type": "SCALAR"
		},
		{
			"bufferView": 1,
			"byteOffset": 0,
			"componentType": 5126,
			"count": 33937,
			"max": [9.759064674377441, -17.857219696044922, 6.172973155975342],
			"min": [
				-7.251016139984131, -43.827030181884766, -6.879549980163574
			],
			"type": "VEC3"
		},
		{
			"bufferView": 2,
			"byteOffset": 0,
			"componentType": 5126,
			"count": 33937,
			"type": "VEC3"
		},
		{
			"bufferView": 3,
			"byteOffset": 0,
			"componentType": 5126,
			"count": 33937,
			"type": "VEC2"
		}
	],
	"bufferViews": [
		{ "buffer": 0, "byteOffset": 0, "byteLength": 600216, "target": 34963 },
		{
			"buffer": 0,
			"byteOffset": 600216,
			"byteLength": 407244,
			"target": 34962
		},
		{
			"buffer": 0,
			"byteOffset": 1007460,
			"byteLength": 407244,
			"target": 34962
		},
		{
			"buffer": 0,
			"byteOffset": 1414704,
			"byteLength": 271496,
			"target": 34962
		}
	],
	"scene": 0,
	"scenes": [{ "nodes": [0, 1], "name": "Project Name" }],
	"extensionsUsed": ["KHR_texture_transform"],
	"buffers": [{ "byteLength": 1686200, "uri": "scene.bin" }]
}
