{
	"asset": { "version": "2.0", "generator": "VECTARY" },
	"nodes": [
		{
			"translation": [
				9.92296314239502, 6.762499809265138, -5.446189403533934
			],
			"scale": [
				0.9999999901199592, 1.0000000082778873, 1.0000000268401497
			],
			"rotation": [
				0.7354271630343621, -0.6666097034837243, -0.0760697197490704,
				0.09482503242203505
			],
			"name": "Sketchfab_model 1"
		},
		{
			"translation": [0, -0.025, -5.3290705182007515e-18],
			"scale": [
				0.07755000000000001, 0.07755000000000001, 0.07754924099999999
			],
			"rotation": [
				-0.14701576646519837, 0.6916548014802255, 0.6916548014802256,
				0.1470157664651984
			],
			"name": "Sketchfab_model",
			"children": [2]
		},
		{
			"translation": [
				-2.2220020294189453, -1.4113210439682007, -4.831149101257324
			],
			"scale": [1, 1, 1],
			"rotation": [0, 0, 0, 1],
			"name": "DegasDancerFINAL4.obj.cleaner.materialmerger.gles",
			"children": [3]
		},
		{
			"translation": [0, 0, 0],
			"scale": [1, 1, 1],
			"rotation": [0, 0, 0, 1],
			"name": "Object_2",
			"children": [4, 5, 6, 7, 8]
		},
		{
			"translation": [0, 0, 0],
			"scale": [1, 1, 1],
			"rotation": [0, 0, 0, 1],
			"name": "Object_0",
			"mesh": 0
		},
		{
			"translation": [0, 0, 0],
			"scale": [1, 1, 1],
			"rotation": [0, 0, 0, 1],
			"name": "Object_1",
			"mesh": 1
		},
		{
			"translation": [0, 0, 0],
			"scale": [1, 1, 1],
			"rotation": [0, 0, 0, 1],
			"name": "Object_2",
			"mesh": 2
		},
		{
			"translation": [0, 0, 0],
			"scale": [1, 1, 1],
			"rotation": [0, 0, 0, 1],
			"name": "Object_3",
			"mesh": 3
		},
		{
			"translation": [0, 0, 0],
			"scale": [1, 1, 1],
			"rotation": [0, 0, 0, 1],
			"name": "Object_4",
			"mesh": 4
		}
	],
	"materials": [
		{
			"pbrMetallicRoughness": {
				"baseColorFactor": [1, 1, 1, 1],
				"baseColorTexture": {
					"index": 0,
					"extensions": {
						"KHR_texture_transform": {
							"offset": [0, 0],
							"scale": [1, 1],
							"rotation": 0
						}
					},
					"texCoord": 0
				},
				"metallicFactor": 0,
				"roughnessFactor": 0.6
			},
			"name": "DegasDancer8",
			"emissiveFactor": [0, 0, 0],
			"extensions": {},
			"alphaMode": "OPAQUE",
			"doubleSided": true
		}
	],
	"textures": [{ "sampler": 0, "source": 0 }],
	"images": [
		{
			"uri": "textures/DegasDancer8_baseColor.jpg",
			"mimeType": "image/jpeg"
		}
	],
	"samplers": [{ "wrapS": 10497, "wrapT": 10497 }],
	"meshes": [
		{
			"primitives": [
				{
					"mode": 4,
					"attributes": {
						"POSITION": 1,
						"NORMAL": 2,
						"TEXCOORD_0": 3
					},
					"material": 0,
					"indices": 0
				}
			]
		},
		{
			"primitives": [
				{
					"mode": 4,
					"attributes": {
						"POSITION": 5,
						"NORMAL": 6,
						"TEXCOORD_0": 7
					},
					"material": 0,
					"indices": 4
				}
			]
		},
		{
			"primitives": [
				{
					"mode": 4,
					"attributes": {
						"POSITION": 9,
						"NORMAL": 10,
						"TEXCOORD_0": 11
					},
					"material": 0,
					"indices": 8
				}
			]
		},
		{
			"primitives": [
				{
					"mode": 4,
					"attributes": {
						"POSITION": 13,
						"NORMAL": 14,
						"TEXCOORD_0": 15
					},
					"material": 0,
					"indices": 12
				}
			]
		},
		{
			"primitives": [
				{
					"mode": 4,
					"attributes": {
						"POSITION": 17,
						"NORMAL": 18,
						"TEXCOORD_0": 19
					},
					"material": 0,
					"indices": 16
				}
			]
		}
	],
	"accessors": [
		{
			"bufferView": 0,
			"byteOffset": 0,
			"componentType": 5125,
			"count": 338787,
			"type": "SCALAR"
		},
		{
			"bufferView": 1,
			"byteOffset": 0,
			"componentType": 5126,
			"count": 65532,
			"max": [4.035243988037109, 3.96917724609375, 10.134245872497559],
			"min": [0, 0.11638808250427246, 0],
			"type": "VEC3"
		},
		{
			"bufferView": 2,
			"byteOffset": 0,
			"componentType": 5126,
			"count": 65532,
			"type": "VEC3"
		},
		{
			"bufferView": 3,
			"byteOffset": 0,
			"componentType": 5126,
			"count": 65532,
			"type": "VEC2"
		},
		{
			"bufferView": 4,
			"byteOffset": 0,
			"componentType": 5125,
			"count": 324069,
			"type": "SCALAR"
		},
		{
			"bufferView": 5,
			"byteOffset": 0,
			"componentType": 5126,
			"count": 65532,
			"max": [3.930738925933838, 3.9636740684509277, 11.42809009552002],
			"min": [0.02046513557434082, 0.09006702899932861, 0],
			"type": "VEC3"
		},
		{
			"bufferView": 6,
			"byteOffset": 0,
			"componentType": 5126,
			"count": 65532,
			"type": "VEC3"
		},
		{
			"bufferView": 7,
			"byteOffset": 0,
			"componentType": 5126,
			"count": 65532,
			"type": "VEC2"
		},
		{
			"bufferView": 8,
			"byteOffset": 0,
			"componentType": 5125,
			"count": 286422,
			"type": "SCALAR"
		},
		{
			"bufferView": 9,
			"byteOffset": 0,
			"componentType": 5126,
			"count": 65532,
			"max": [4.024240016937256, 3.96917724609375, 11.426873207092285],
			"min": [0.40719497203826904, 0, 0.03014087677001953],
			"type": "VEC3"
		},
		{
			"bufferView": 10,
			"byteOffset": 0,
			"componentType": 5126,
			"count": 65532,
			"type": "VEC3"
		},
		{
			"bufferView": 11,
			"byteOffset": 0,
			"componentType": 5126,
			"count": 65532,
			"type": "VEC2"
		},
		{
			"bufferView": 12,
			"byteOffset": 0,
			"componentType": 5125,
			"count": 252267,
			"type": "SCALAR"
		},
		{
			"bufferView": 13,
			"byteOffset": 0,
			"componentType": 5126,
			"count": 65532,
			"max": [4.246891975402832, 4.781246185302734, 11.427921295166016],
			"min": [
				0.7672370672225952, 0.062017083168029785, 0.02289295196533203
			],
			"type": "VEC3"
		},
		{
			"bufferView": 14,
			"byteOffset": 0,
			"componentType": 5126,
			"count": 65532,
			"type": "VEC3"
		},
		{
			"bufferView": 15,
			"byteOffset": 0,
			"componentType": 5126,
			"count": 65532,
			"type": "VEC2"
		},
		{
			"bufferView": 16,
			"byteOffset": 0,
			"componentType": 5125,
			"count": 3285,
			"type": "SCALAR"
		},
		{
			"bufferView": 17,
			"byteOffset": 0,
			"componentType": 5126,
			"count": 1243,
			"max": [2.4822020530700684, 1.792240023612976, 10.50595474243164],
			"min": [1.4830329418182373, 0.38151800632476807, 8.907163619995117],
			"type": "VEC3"
		},
		{
			"bufferView": 18,
			"byteOffset": 0,
			"componentType": 5126,
			"count": 1243,
			"type": "VEC3"
		},
		{
			"bufferView": 19,
			"byteOffset": 0,
			"componentType": 5126,
			"count": 1243,
			"type": "VEC2"
		}
	],
	"bufferViews": [
		{
			"buffer": 0,
			"byteOffset": 0,
			"byteLength": 1355148,
			"target": 34963
		},
		{
			"buffer": 0,
			"byteOffset": 1355148,
			"byteLength": 786384,
			"target": 34962
		},
		{
			"buffer": 0,
			"byteOffset": 2141532,
			"byteLength": 786384,
			"target": 34962
		},
		{
			"buffer": 0,
			"byteOffset": 2927916,
			"byteLength": 524256,
			"target": 34962
		},
		{
			"buffer": 0,
			"byteOffset": 3452172,
			"byteLength": 1296276,
			"target": 34963
		},
		{
			"buffer": 0,
			"byteOffset": 4748448,
			"byteLength": 786384,
			"target": 34962
		},
		{
			"buffer": 0,
			"byteOffset": 5534832,
			"byteLength": 786384,
			"target": 34962
		},
		{
			"buffer": 0,
			"byteOffset": 6321216,
			"byteLength": 524256,
			"target": 34962
		},
		{
			"buffer": 0,
			"byteOffset": 6845472,
			"byteLength": 1145688,
			"target": 34963
		},
		{
			"buffer": 0,
			"byteOffset": 7991160,
			"byteLength": 786384,
			"target": 34962
		},
		{
			"buffer": 0,
			"byteOffset": 8777544,
			"byteLength": 786384,
			"target": 34962
		},
		{
			"buffer": 0,
			"byteOffset": 9563928,
			"byteLength": 524256,
			"target": 34962
		},
		{
			"buffer": 0,
			"byteOffset": 10088184,
			"byteLength": 1009068,
			"target": 34963
		},
		{
			"buffer": 0,
			"byteOffset": 11097252,
			"byteLength": 786384,
			"target": 34962
		},
		{
			"buffer": 0,
			"byteOffset": 11883636,
			"byteLength": 786384,
			"target": 34962
		},
		{
			"buffer": 0,
			"byteOffset": 12670020,
			"byteLength": 524256,
			"target": 34962
		},
		{
			"buffer": 0,
			"byteOffset": 13194276,
			"byteLength": 13140,
			"target": 34963
		},
		{
			"buffer": 0,
			"byteOffset": 13207416,
			"byteLength": 14916,
			"target": 34962
		},
		{
			"buffer": 0,
			"byteOffset": 13222332,
			"byteLength": 14916,
			"target": 34962
		},
		{
			"buffer": 0,
			"byteOffset": 13237248,
			"byteLength": 9944,
			"target": 34962
		}
	],
	"scene": 0,
	"scenes": [{ "nodes": [0, 1], "name": "Project Name" }],
	"extensionsUsed": ["KHR_texture_transform"],
	"buffers": [{ "byteLength": 13247192, "uri": "scene.bin" }]
}
