{
	"asset": { "version": "2.0", "generator": "VECTARY" },
	"nodes": [
		{
			"translation": [
				9.92296314239502, 6.762499809265138, -5.446189403533934
			],
			"scale": [
				0.9999999901199592, 1.0000000082778873, 1.0000000268401497
			],
			"rotation": [
				0.7354271630343621, -0.6666097034837243, -0.0760697197490704,
				0.09482503242203505
			],
			"name": "Sketchfab_model 1"
		},
		{
			"translation": [
				0.015714093, -0.24999999999999992, 0.0046099671162664465
			],
			"scale": [0.29549000000000003, 0.2954900000000001, 0.295494269],
			"rotation": [
				-0.7089173561631045, -0.0026904034045856207,
				0.002624924318943217, 0.7052815421039704
			],
			"name": "Sketchfab_model 2",
			"children": [2]
		},
		{
			"translation": [0, 0, 0],
			"scale": [1, 1, 1],
			"rotation": [0, 0, 0, 1],
			"name": "Rodin_Thinker.obj.cleaner.materialmerger.gles",
			"children": [3]
		},
		{
			"translation": [0, 0, 0],
			"scale": [1, 1, 1],
			"rotation": [0, 0, 0, 1],
			"name": "Object_0",
			"mesh": 0
		}
	],
	"materials": [
		{
			"pbrMetallicRoughness": {
				"baseColorFactor": [1, 1, 1, 1],
				"baseColorTexture": {
					"index": 0,
					"extensions": {
						"KHR_texture_transform": {
							"offset": [0, 0],
							"scale": [1, 1],
							"rotation": 0
						}
					},
					"texCoord": 0
				},
				"metallicRoughnessTexture": {
					"index": 2,
					"extensions": {
						"KHR_texture_transform": {
							"offset": [0, 0],
							"scale": [1, 1],
							"rotation": 0
						}
					},
					"texCoord": 0
				},
				"metallicFactor": 0,
				"roughnessFactor": 1
			},
			"name": "material_0",
			"normalTexture": {
				"index": 1,
				"scale": 1,
				"extensions": {
					"KHR_texture_transform": {
						"offset": [0, 0],
						"scale": [1, 1],
						"rotation": 0
					}
				},
				"texCoord": 0
			},
			"emissiveFactor": [0, 0, 0],
			"extensions": {},
			"alphaMode": "OPAQUE",
			"doubleSided": true
		}
	],
	"textures": [
		{ "sampler": 0, "source": 0 },
		{ "sampler": 0, "source": 1 },
		{ "sampler": 0, "source": 2 }
	],
	"images": [
		{
			"uri": "textures/material_0_baseColor.jpg",
			"mimeType": "image/jpeg"
		},
		{ "uri": "textures/material_0_normal.jpg", "mimeType": "image/jpeg" },
		{
			"uri": "textures/material_0_metallicRoughness.jpg",
			"mimeType": "image/jpeg"
		}
	],
	"samplers": [{ "wrapS": 10497, "wrapT": 10497 }],
	"meshes": [
		{
			"primitives": [
				{
					"mode": 4,
					"attributes": {
						"POSITION": 1,
						"NORMAL": 2,
						"TEXCOORD_0": 3
					},
					"material": 0,
					"indices": 0
				}
			]
		}
	],
	"accessors": [
		{
			"bufferView": 0,
			"byteOffset": 0,
			"componentType": 5125,
			"count": 152922,
			"type": "SCALAR"
		},
		{
			"bufferView": 1,
			"byteOffset": 0,
			"componentType": 5126,
			"count": 28436,
			"max": [0.5762190222740173, 0.4916529953479767, 1.7867790460586548],
			"min": [
				-0.9329630136489868, -0.5770919919013977, 0.0013559999642893672
			],
			"type": "VEC3"
		},
		{
			"bufferView": 2,
			"byteOffset": 0,
			"componentType": 5126,
			"count": 28436,
			"type": "VEC3"
		},
		{
			"bufferView": 3,
			"byteOffset": 0,
			"componentType": 5126,
			"count": 28436,
			"type": "VEC2"
		}
	],
	"bufferViews": [
		{ "buffer": 0, "byteOffset": 0, "byteLength": 611688, "target": 34963 },
		{
			"buffer": 0,
			"byteOffset": 611688,
			"byteLength": 341232,
			"target": 34962
		},
		{
			"buffer": 0,
			"byteOffset": 952920,
			"byteLength": 341232,
			"target": 34962
		},
		{
			"buffer": 0,
			"byteOffset": 1294152,
			"byteLength": 227488,
			"target": 34962
		}
	],
	"scene": 0,
	"scenes": [{ "nodes": [0, 1], "name": "Project Name" }],
	"extensionsUsed": ["KHR_texture_transform"],
	"buffers": [{ "byteLength": 1521640, "uri": "scene.bin" }]
}
