{
	"asset": { "version": "2.0", "generator": "VECTARY" },
	"nodes": [
		{
			"translation": [
				9.92296314239502, 6.762499809265138, -5.446189403533934
			],
			"scale": [
				0.9999999901199592, 1.0000000082778873, 1.0000000268401497
			],
			"rotation": [
				0.7354271630343621, -0.6666097034837243, -0.0760697197490704,
				0.09482503242203505
			],
			"name": "Sketchfab_model 1"
		},
		{
			"translation": [0, -0.125, -2.1316282072803006e-17],
			"scale": [0.47873000000000004, 0.47873000000000004, 0.478727089],
			"rotation": [-0.7071067811865475, 0, 0, 0.7071067811865476],
			"name": "Sketchfab_model",
			"children": [2]
		},
		{
			"translation": [0, 0, 0],
			"scale": [1, 1, 1],
			"rotation": [0, 0, 0, 1],
			"name": "textured.obj.cleaner.materialmerger.gles",
			"children": [3]
		},
		{
			"translation": [0, 0, 0],
			"scale": [1, 1, 1],
			"rotation": [0, 0, 0, 1],
			"name": "Object_0",
			"mesh": 0
		}
	],
	"materials": [
		{
			"pbrMetallicRoughness": {
				"baseColorFactor": [1, 1, 1, 1],
				"baseColorTexture": {
					"index": 0,
					"extensions": {
						"KHR_texture_transform": {
							"offset": [0, 0],
							"scale": [1, 1],
							"rotation": 0
						}
					},
					"texCoord": 0
				},
				"metallicFactor": 0,
				"roughnessFactor": 1
			},
			"name": "textured_0",
			"emissiveFactor": [0, 0, 0],
			"extensions": {},
			"alphaMode": "OPAQUE",
			"doubleSided": true
		}
	],
	"textures": [{ "sampler": 0, "source": 0 }],
	"images": [
		{ "uri": "textures/textured_0_baseColor.jpg", "mimeType": "image/jpeg" }
	],
	"samplers": [{ "wrapS": 10497, "wrapT": 10497 }],
	"meshes": [
		{
			"primitives": [
				{
					"mode": 4,
					"attributes": {
						"POSITION": 1,
						"NORMAL": 2,
						"TEXCOORD_0": 3
					},
					"material": 0,
					"indices": 0
				}
			]
		}
	],
	"accessors": [
		{
			"bufferView": 0,
			"byteOffset": 0,
			"componentType": 5125,
			"count": 56967,
			"type": "SCALAR"
		},
		{
			"bufferView": 1,
			"byteOffset": 0,
			"componentType": 5126,
			"count": 12937,
			"max": [0.4634439945220947, 0.4656609892845154, 1.2502800226211548],
			"min": [
				-0.779570996761322, -1.0029000043869019, -0.4994029998779297
			],
			"type": "VEC3"
		},
		{
			"bufferView": 2,
			"byteOffset": 0,
			"componentType": 5126,
			"count": 12937,
			"type": "VEC3"
		},
		{
			"bufferView": 3,
			"byteOffset": 0,
			"componentType": 5126,
			"count": 12937,
			"type": "VEC2"
		}
	],
	"bufferViews": [
		{ "buffer": 0, "byteOffset": 0, "byteLength": 227868, "target": 34963 },
		{
			"buffer": 0,
			"byteOffset": 227868,
			"byteLength": 155244,
			"target": 34962
		},
		{
			"buffer": 0,
			"byteOffset": 383112,
			"byteLength": 155244,
			"target": 34962
		},
		{
			"buffer": 0,
			"byteOffset": 538356,
			"byteLength": 103496,
			"target": 34962
		}
	],
	"scene": 0,
	"scenes": [{ "nodes": [0, 1], "name": "Project Name" }],
	"extensionsUsed": ["KHR_texture_transform"],
	"buffers": [{ "byteLength": 641852, "uri": "scene.bin" }]
}
