{
	"asset": { "version": "2.0", "generator": "VECTARY" },
	"nodes": [
		{
			"translation": [0, -0.24999999999999994, 2.9061197892588097e-14],
			"scale": [0.0011, 0.0011000000000000003, 0.0011000000000000003],
			"rotation": [-1, 0, 0, 2.220446049250313e-16],
			"name": "Sketchfab_model",
			"children": [1]
		},
		{
			"translation": [0, 0, 0],
			"scale": [1, 1, 1],
			"rotation": [0, 0, 0, 1],
			"name": "20191106 Nefertiti 3D Scan, DECIMATED_TO_10pcnt.obj.cleaner.materialmerger.gles",
			"children": [2, 3, 4, 5, 6, 7, 8]
		},
		{
			"translation": [0, 0, 0],
			"scale": [1, 1, 1],
			"rotation": [0, 0, 0, 1],
			"name": "Object_0",
			"mesh": 0
		},
		{
			"translation": [0, 0, 0],
			"scale": [1, 1, 1],
			"rotation": [0, 0, 0, 1],
			"name": "Object_1",
			"mesh": 1
		},
		{
			"translation": [0, 0, 0],
			"scale": [1, 1, 1],
			"rotation": [0, 0, 0, 1],
			"name": "Object_2",
			"mesh": 2
		},
		{
			"translation": [0, 0, 0],
			"scale": [1, 1, 1],
			"rotation": [0, 0, 0, 1],
			"name": "Object_3",
			"mesh": 3
		},
		{
			"translation": [0, 0, 0],
			"scale": [1, 1, 1],
			"rotation": [0, 0, 0, 1],
			"name": "Object_4",
			"mesh": 4
		},
		{
			"translation": [0, 0, 0],
			"scale": [1, 1, 1],
			"rotation": [0, 0, 0, 1],
			"name": "Object_5",
			"mesh": 5
		},
		{
			"translation": [0, 0, 0],
			"scale": [1, 1, 1],
			"rotation": [0, 0, 0, 1],
			"name": "Object_6",
			"mesh": 6
		}
	],
	"materials": [
		{
			"pbrMetallicRoughness": {
				"baseColorFactor": [1, 1, 1, 1],
				"baseColorTexture": {
					"index": 0,
					"extensions": {
						"KHR_texture_transform": {
							"offset": [0, 0],
							"scale": [1, 1],
							"rotation": 0
						}
					},
					"texCoord": 0
				},
				"metallicRoughnessTexture": {
					"index": 2,
					"extensions": {
						"KHR_texture_transform": {
							"offset": [0, 0],
							"scale": [1, 1],
							"rotation": 0
						}
					},
					"texCoord": 0
				},
				"metallicFactor": 0,
				"roughnessFactor": 1
			},
			"name": "material_0",
			"normalTexture": {
				"index": 1,
				"scale": 0.49,
				"extensions": {
					"KHR_texture_transform": {
						"offset": [0, 0],
						"scale": [1, 1],
						"rotation": 0
					}
				},
				"texCoord": 0
			},
			"emissiveFactor": [0, 0, 0],
			"extensions": {},
			"alphaMode": "OPAQUE",
			"doubleSided": true
		}
	],
	"textures": [
		{ "sampler": 0, "source": 0 },
		{ "sampler": 0, "source": 1 },
		{ "sampler": 0, "source": 2 }
	],
	"images": [
		{
			"uri": "/dist/3D_models/main/bust-of-nefertiti/textures/material_0_baseColor.jpg",
			"mimeType": "image/jpeg"
		},
		{
			"uri": "/dist/3D_models/main/bust-of-nefertiti/textures/material_0_normal.jpg",
			"mimeType": "image/jpeg"
		},
		{
			"uri": "/dist/3D_models/main/bust-of-nefertiti/textures/material_0_metallicRoughness.jpg",
			"mimeType": "image/jpeg"
		}
	],
	"samplers": [{ "wrapS": 10497, "wrapT": 10497 }],
	"meshes": [
		{
			"primitives": [
				{
					"mode": 4,
					"attributes": {
						"POSITION": 1,
						"NORMAL": 2,
						"TEXCOORD_0": 3
					},
					"material": 0,
					"indices": 0
				}
			]
		},
		{
			"primitives": [
				{
					"mode": 4,
					"attributes": {
						"POSITION": 5,
						"NORMAL": 6,
						"TEXCOORD_0": 7
					},
					"material": 0,
					"indices": 4
				}
			]
		},
		{
			"primitives": [
				{
					"mode": 4,
					"attributes": {
						"POSITION": 9,
						"NORMAL": 10,
						"TEXCOORD_0": 11
					},
					"material": 0,
					"indices": 8
				}
			]
		},
		{
			"primitives": [
				{
					"mode": 4,
					"attributes": {
						"POSITION": 13,
						"NORMAL": 14,
						"TEXCOORD_0": 15
					},
					"material": 0,
					"indices": 12
				}
			]
		},
		{
			"primitives": [
				{
					"mode": 4,
					"attributes": {
						"POSITION": 17,
						"NORMAL": 18,
						"TEXCOORD_0": 19
					},
					"material": 0,
					"indices": 16
				}
			]
		},
		{
			"primitives": [
				{
					"mode": 4,
					"attributes": {
						"POSITION": 21,
						"NORMAL": 22,
						"TEXCOORD_0": 23
					},
					"material": 0,
					"indices": 20
				}
			]
		},
		{
			"primitives": [
				{
					"mode": 4,
					"attributes": {
						"POSITION": 25,
						"NORMAL": 26,
						"TEXCOORD_0": 27
					},
					"material": 0,
					"indices": 24
				}
			]
		}
	],
	"accessors": [
		{
			"bufferView": 0,
			"byteOffset": 0,
			"componentType": 5125,
			"count": 314067,
			"type": "SCALAR"
		},
		{
			"bufferView": 1,
			"byteOffset": 0,
			"componentType": 5126,
			"count": 65532,
			"max": [123.54794311523438, 5.238234996795654, 182.03302001953125],
			"min": [
				-116.9815673828125, -492.2366943359375, -181.64169311523438
			],
			"type": "VEC3"
		},
		{
			"bufferView": 2,
			"byteOffset": 0,
			"componentType": 5126,
			"count": 65532,
			"type": "VEC3"
		},
		{
			"bufferView": 3,
			"byteOffset": 0,
			"componentType": 5126,
			"count": 65532,
			"type": "VEC2"
		},
		{
			"bufferView": 4,
			"byteOffset": 0,
			"componentType": 5125,
			"count": 350484,
			"type": "SCALAR"
		},
		{
			"bufferView": 5,
			"byteOffset": 0,
			"componentType": 5126,
			"count": 65532,
			"max": [99.04116821289062, 3.4593958854675293, 182.26638793945312],
			"min": [
				-96.53192138671875, -491.70098876953125, -182.98138427734375
			],
			"type": "VEC3"
		},
		{
			"bufferView": 6,
			"byteOffset": 0,
			"componentType": 5126,
			"count": 65532,
			"type": "VEC3"
		},
		{
			"bufferView": 7,
			"byteOffset": 0,
			"componentType": 5126,
			"count": 65532,
			"type": "VEC2"
		},
		{
			"bufferView": 8,
			"byteOffset": 0,
			"componentType": 5125,
			"count": 337989,
			"type": "SCALAR"
		},
		{
			"bufferView": 9,
			"byteOffset": 0,
			"componentType": 5126,
			"count": 65532,
			"max": [124.90594482421875, -127.5355453491211, 182.22164916992188],
			"min": [
				-29.99383544921875, -491.5052490234375, -179.70297241210938
			],
			"type": "VEC3"
		},
		{
			"bufferView": 10,
			"byteOffset": 0,
			"componentType": 5126,
			"count": 65532,
			"type": "VEC3"
		},
		{
			"bufferView": 11,
			"byteOffset": 0,
			"componentType": 5126,
			"count": 65532,
			"type": "VEC2"
		},
		{
			"bufferView": 12,
			"byteOffset": 0,
			"componentType": 5125,
			"count": 316623,
			"type": "SCALAR"
		},
		{
			"bufferView": 13,
			"byteOffset": 0,
			"componentType": 5126,
			"count": 65532,
			"max": [124.87014770507812, 0.3117069900035858, 182.23434448242188],
			"min": [-116.39715576171875, -489.4893798828125, -177.290283203125],
			"type": "VEC3"
		},
		{
			"bufferView": 14,
			"byteOffset": 0,
			"componentType": 5126,
			"count": 65532,
			"type": "VEC3"
		},
		{
			"bufferView": 15,
			"byteOffset": 0,
			"componentType": 5126,
			"count": 65532,
			"type": "VEC2"
		},
		{
			"bufferView": 16,
			"byteOffset": 0,
			"componentType": 5125,
			"count": 217497,
			"type": "SCALAR"
		},
		{
			"bufferView": 17,
			"byteOffset": 0,
			"componentType": 5126,
			"count": 65532,
			"max": [124.90594482421875, 5.238234996795654, 181.857177734375],
			"min": [-116.4185791015625, -492.2366943359375, -169.7266082763672],
			"type": "VEC3"
		},
		{
			"bufferView": 18,
			"byteOffset": 0,
			"componentType": 5126,
			"count": 65532,
			"type": "VEC3"
		},
		{
			"bufferView": 19,
			"byteOffset": 0,
			"componentType": 5126,
			"count": 65532,
			"type": "VEC2"
		},
		{
			"bufferView": 20,
			"byteOffset": 0,
			"componentType": 5125,
			"count": 355455,
			"type": "SCALAR"
		},
		{
			"bufferView": 21,
			"byteOffset": 0,
			"componentType": 5126,
			"count": 65532,
			"max": [120.10305786132812, 4.73590087890625, 154.69900512695312],
			"min": [
				-117.00836181640625, -475.6061706542969, -183.2025909423828
			],
			"type": "VEC3"
		},
		{
			"bufferView": 22,
			"byteOffset": 0,
			"componentType": 5126,
			"count": 65532,
			"type": "VEC3"
		},
		{
			"bufferView": 23,
			"byteOffset": 0,
			"componentType": 5126,
			"count": 65532,
			"type": "VEC2"
		},
		{
			"bufferView": 24,
			"byteOffset": 0,
			"componentType": 5125,
			"count": 34251,
			"type": "SCALAR"
		},
		{
			"bufferView": 25,
			"byteOffset": 0,
			"componentType": 5126,
			"count": 9573,
			"max": [8.704681396484375, -172.2847442626953, 182.10098266601562],
			"min": [-116.9815673828125, -477.26953125, -183.08358764648438],
			"type": "VEC3"
		},
		{
			"bufferView": 26,
			"byteOffset": 0,
			"componentType": 5126,
			"count": 9573,
			"type": "VEC3"
		},
		{
			"bufferView": 27,
			"byteOffset": 0,
			"componentType": 5126,
			"count": 9573,
			"type": "VEC2"
		}
	],
	"bufferViews": [
		{
			"buffer": 0,
			"byteOffset": 0,
			"byteLength": 1256268,
			"target": 34963
		},
		{
			"buffer": 0,
			"byteOffset": 1256268,
			"byteLength": 786384,
			"target": 34962
		},
		{
			"buffer": 0,
			"byteOffset": 2042652,
			"byteLength": 786384,
			"target": 34962
		},
		{
			"buffer": 0,
			"byteOffset": 2829036,
			"byteLength": 524256,
			"target": 34962
		},
		{
			"buffer": 0,
			"byteOffset": 3353292,
			"byteLength": 1401936,
			"target": 34963
		},
		{
			"buffer": 0,
			"byteOffset": 4755228,
			"byteLength": 786384,
			"target": 34962
		},
		{
			"buffer": 0,
			"byteOffset": 5541612,
			"byteLength": 786384,
			"target": 34962
		},
		{
			"buffer": 0,
			"byteOffset": 6327996,
			"byteLength": 524256,
			"target": 34962
		},
		{
			"buffer": 0,
			"byteOffset": 6852252,
			"byteLength": 1351956,
			"target": 34963
		},
		{
			"buffer": 0,
			"byteOffset": 8204208,
			"byteLength": 786384,
			"target": 34962
		},
		{
			"buffer": 0,
			"byteOffset": 8990592,
			"byteLength": 786384,
			"target": 34962
		},
		{
			"buffer": 0,
			"byteOffset": 9776976,
			"byteLength": 524256,
			"target": 34962
		},
		{
			"buffer": 0,
			"byteOffset": 10301232,
			"byteLength": 1266492,
			"target": 34963
		},
		{
			"buffer": 0,
			"byteOffset": 11567724,
			"byteLength": 786384,
			"target": 34962
		},
		{
			"buffer": 0,
			"byteOffset": 12354108,
			"byteLength": 786384,
			"target": 34962
		},
		{
			"buffer": 0,
			"byteOffset": 13140492,
			"byteLength": 524256,
			"target": 34962
		},
		{
			"buffer": 0,
			"byteOffset": 13664748,
			"byteLength": 869988,
			"target": 34963
		},
		{
			"buffer": 0,
			"byteOffset": 14534736,
			"byteLength": 786384,
			"target": 34962
		},
		{
			"buffer": 0,
			"byteOffset": 15321120,
			"byteLength": 786384,
			"target": 34962
		},
		{
			"buffer": 0,
			"byteOffset": 16107504,
			"byteLength": 524256,
			"target": 34962
		},
		{
			"buffer": 0,
			"byteOffset": 16631760,
			"byteLength": 1421820,
			"target": 34963
		},
		{
			"buffer": 0,
			"byteOffset": 18053580,
			"byteLength": 786384,
			"target": 34962
		},
		{
			"buffer": 0,
			"byteOffset": 18839964,
			"byteLength": 786384,
			"target": 34962
		},
		{
			"buffer": 0,
			"byteOffset": 19626348,
			"byteLength": 524256,
			"target": 34962
		},
		{
			"buffer": 0,
			"byteOffset": 20150604,
			"byteLength": 137004,
			"target": 34963
		},
		{
			"buffer": 0,
			"byteOffset": 20287608,
			"byteLength": 114876,
			"target": 34962
		},
		{
			"buffer": 0,
			"byteOffset": 20402484,
			"byteLength": 114876,
			"target": 34962
		},
		{
			"buffer": 0,
			"byteOffset": 20517360,
			"byteLength": 76584,
			"target": 34962
		}
	],
	"scene": 0,
	"scenes": [{ "nodes": [0], "name": "Project Name" }],
	"extensionsUsed": ["KHR_texture_transform"],
	"buffers": [
		{
			"byteLength": 20593944,
			"uri": "/dist/3D_models/main/bust-of-nefertiti/scene.bin"
		}
	]
}
