{
	"asset": { "version": "2.0", "generator": "VECTARY" },
	"nodes": [
		{
			"translation": [0, -0.25, -4.263256414560601e-17],
			"scale": [
				0.00026000000000000003, 0.00026000000000000003, 0.000255856
			],
			"rotation": [-0.7071067811865475, 0, 0, 0.7071067811865476],
			"name": "Sketchfab_model",
			"children": [1]
		},
		{
			"translation": [
				-340.3861083984375, -358.0598449707031, -0.6337927579879761
			],
			"scale": [1, 1, 1],
			"rotation": [0, 0, 0, 1],
			"name": "Venus_de_Milo_SMK_KAS434_1_10pct.obj.cleaner.gles",
			"children": [2]
		},
		{
			"translation": [0, 0, 0],
			"scale": [1, 1, 1],
			"rotation": [0, 0, 0, 1],
			"name": "Object_2",
			"children": [3, 4, 5]
		},
		{
			"translation": [0, 0, 0],
			"scale": [1, 1, 1],
			"rotation": [0, 0, 0, 1],
			"name": "Object_0",
			"mesh": 0
		},
		{
			"translation": [0, 0, 0],
			"scale": [1, 1, 1],
			"rotation": [0, 0, 0, 1],
			"name": "Object_1",
			"mesh": 1
		},
		{
			"translation": [0, 0, 0],
			"scale": [1, 1, 1],
			"rotation": [0, 0, 0, 1],
			"name": "Object_2",
			"mesh": 2
		}
	],
	"materials": [
		{
			"pbrMetallicRoughness": {
				"baseColorFactor": [1, 1, 1, 1],
				"baseColorTexture": {
					"index": 0,
					"extensions": {
						"KHR_texture_transform": {
							"offset": [0, 0],
							"scale": [1, 1],
							"rotation": 0
						}
					},
					"texCoord": 0
				},
				"metallicRoughnessTexture": {
					"index": 2,
					"extensions": {
						"KHR_texture_transform": {
							"offset": [0, 0],
							"scale": [1, 1],
							"rotation": 0
						}
					},
					"texCoord": 0
				},
				"metallicFactor": 1,
				"roughnessFactor": 1
			},
			"name": "Concrete",
			"normalTexture": {
				"index": 1,
				"scale": 1,
				"extensions": {
					"KHR_texture_transform": {
						"offset": [0, 0],
						"scale": [1, 1],
						"rotation": 0
					}
				},
				"texCoord": 0
			},
			"emissiveFactor": [0, 0, 0],
			"extensions": {},
			"alphaMode": "OPAQUE",
			"doubleSided": false
		}
	],
	"textures": [
		{ "sampler": 0, "source": 0 },
		{ "sampler": 0, "source": 1 },
		{ "sampler": 0, "source": 2 }
	],
	"images": [
		{ "uri": "textures/Concrete_001_Color.jpg", "mimeType": "image/jpeg" },
		{
			"uri": "textures/Concrete_001_NormalMap.jpg",
			"mimeType": "image/jpeg"
		},
		{
			"uri": "textures/Concrete_001_Metalic&Concrete_001_Roughness.jpg",
			"mimeType": "image/jpeg"
		}
	],
	"samplers": [{ "wrapS": 10497, "wrapT": 10497 }],
	"meshes": [
		{
			"primitives": [
				{
					"mode": 4,
					"attributes": {
						"POSITION": 1,
						"NORMAL": 2,
						"TEXCOORD_0": 3
					},
					"material": 0,
					"indices": 0
				}
			]
		},
		{
			"primitives": [
				{
					"mode": 4,
					"attributes": {
						"POSITION": 5,
						"NORMAL": 6,
						"TEXCOORD_0": 7
					},
					"material": 0,
					"indices": 4
				}
			]
		},
		{
			"primitives": [
				{
					"mode": 4,
					"attributes": {
						"POSITION": 9,
						"NORMAL": 10,
						"TEXCOORD_0": 11
					},
					"material": 0,
					"indices": 8
				}
			]
		}
	],
	"accessors": [
		{
			"bufferView": 0,
			"byteOffset": 0,
			"componentType": 5125,
			"count": 308256,
			"type": "SCALAR"
		},
		{
			"bufferView": 1,
			"byteOffset": 0,
			"componentType": 5126,
			"count": 163646,
			"max": [699.767822265625, 638.9241333007812, 2117.29541015625],
			"min": [0, 0, 0.029144465923309326],
			"type": "VEC3"
		},
		{
			"bufferView": 2,
			"byteOffset": 0,
			"componentType": 5126,
			"count": 163646,
			"type": "VEC3"
		},
		{
			"bufferView": 3,
			"byteOffset": 0,
			"componentType": 5126,
			"count": 163646,
			"type": "VEC2"
		},
		{
			"bufferView": 4,
			"byteOffset": 0,
			"componentType": 5125,
			"count": 315120,
			"type": "SCALAR"
		},
		{
			"bufferView": 5,
			"byteOffset": 0,
			"componentType": 5126,
			"count": 163856,
			"max": [700.1483154296875, 638.9241333007812, 2119.80126953125],
			"min": [19.3170166015625, 0.46734619140625, 0.06829601526260376],
			"type": "VEC3"
		},
		{
			"bufferView": 6,
			"byteOffset": 0,
			"componentType": 5126,
			"count": 163856,
			"type": "VEC3"
		},
		{
			"bufferView": 7,
			"byteOffset": 0,
			"componentType": 5126,
			"count": 163856,
			"type": "VEC2"
		},
		{
			"bufferView": 8,
			"byteOffset": 0,
			"componentType": 5125,
			"count": 199353,
			"type": "SCALAR"
		},
		{
			"bufferView": 9,
			"byteOffset": 0,
			"componentType": 5126,
			"count": 120241,
			"max": [699.4484252929688, 638.9241333007812, 2120.55810546875],
			"min": [0, 0.39752197265625, 0],
			"type": "VEC3"
		},
		{
			"bufferView": 10,
			"byteOffset": 0,
			"componentType": 5126,
			"count": 120241,
			"type": "VEC3"
		},
		{
			"bufferView": 11,
			"byteOffset": 0,
			"componentType": 5126,
			"count": 120241,
			"type": "VEC2"
		}
	],
	"bufferViews": [
		{
			"buffer": 0,
			"byteOffset": 0,
			"byteLength": 1233024,
			"target": 34963
		},
		{
			"buffer": 0,
			"byteOffset": 1233024,
			"byteLength": 1963752,
			"target": 34962
		},
		{
			"buffer": 0,
			"byteOffset": 3196776,
			"byteLength": 1963752,
			"target": 34962
		},
		{
			"buffer": 0,
			"byteOffset": 5160528,
			"byteLength": 1309168,
			"target": 34962
		},
		{
			"buffer": 0,
			"byteOffset": 6469696,
			"byteLength": 1260480,
			"target": 34963
		},
		{
			"buffer": 0,
			"byteOffset": 7730176,
			"byteLength": 1966272,
			"target": 34962
		},
		{
			"buffer": 0,
			"byteOffset": 9696448,
			"byteLength": 1966272,
			"target": 34962
		},
		{
			"buffer": 0,
			"byteOffset": 11662720,
			"byteLength": 1310848,
			"target": 34962
		},
		{
			"buffer": 0,
			"byteOffset": 12973568,
			"byteLength": 797412,
			"target": 34963
		},
		{
			"buffer": 0,
			"byteOffset": 13770980,
			"byteLength": 1442892,
			"target": 34962
		},
		{
			"buffer": 0,
			"byteOffset": 15213872,
			"byteLength": 1442892,
			"target": 34962
		},
		{
			"buffer": 0,
			"byteOffset": 16656764,
			"byteLength": 961928,
			"target": 34962
		}
	],
	"scene": 0,
	"scenes": [{ "nodes": [0], "name": "Project Name" }],
	"extensionsUsed": ["KHR_texture_transform"],
	"buffers": [{ "byteLength": 17618692, "uri": "scene.bin" }]
}
